<?xml version="1.0" encoding="UTF-8"?>
<svg xmlns="http://www.w3.org/2000/svg" version="1.1" width="200" height="200" viewBox="0 0 200 200"><rect x="0" y="0" width="200" height="200" fill="#ffffff"/><g transform="scale(9.524)"><g transform="translate(0,0)"><path fill-rule="evenodd" d="M11 0L11 2L10 2L10 1L9 1L9 2L8 2L8 3L9 3L9 2L10 2L10 4L9 4L9 5L11 5L11 6L10 6L10 7L9 7L9 6L8 6L8 8L4 8L4 9L3 9L3 8L0 8L0 10L1 10L1 9L2 9L2 11L1 11L1 12L0 12L0 13L1 13L1 12L2 12L2 13L4 13L4 12L5 12L5 13L8 13L8 17L9 17L9 18L8 18L8 21L9 21L9 19L10 19L10 21L12 21L12 20L13 20L13 18L14 18L14 19L16 19L16 20L15 20L15 21L21 21L21 20L20 20L20 19L21 19L21 18L20 18L20 19L19 19L19 17L18 17L18 18L17 18L17 17L16 17L16 16L18 16L18 15L21 15L21 14L19 14L19 13L21 13L21 12L20 12L20 11L21 11L21 9L19 9L19 8L18 8L18 9L15 9L15 8L12 8L12 7L13 7L13 6L12 6L12 3L13 3L13 2L12 2L12 0ZM11 2L11 3L12 3L12 2ZM11 6L11 7L10 7L10 8L9 8L9 9L10 9L10 8L11 8L11 10L9 10L9 12L8 12L8 11L6 11L6 10L7 10L7 9L6 9L6 10L5 10L5 9L4 9L4 10L5 10L5 12L8 12L8 13L10 13L10 14L11 14L11 15L12 15L12 16L11 16L11 17L10 17L10 18L12 18L12 16L13 16L13 17L15 17L15 16L16 16L16 15L15 15L15 14L16 14L16 12L15 12L15 10L14 10L14 11L12 11L12 8L11 8L11 7L12 7L12 6ZM18 9L18 10L19 10L19 9ZM2 11L2 12L3 12L3 11ZM17 11L17 12L18 12L18 13L19 13L19 11ZM11 12L11 14L12 14L12 15L14 15L14 12L13 12L13 13L12 13L12 12ZM17 14L17 15L18 15L18 14ZM9 15L9 16L10 16L10 15ZM20 16L20 17L21 17L21 16ZM11 19L11 20L12 20L12 19ZM17 19L17 20L19 20L19 19ZM0 0L0 7L7 7L7 0ZM1 1L1 6L6 6L6 1ZM2 2L2 5L5 5L5 2ZM14 0L14 7L21 7L21 0ZM15 1L15 6L20 6L20 1ZM16 2L16 5L19 5L19 2ZM0 14L0 21L7 21L7 14ZM1 15L1 20L6 20L6 15ZM2 16L2 19L5 19L5 16Z" fill="#000000"/></g></g></svg>
