<?xml version="1.0" encoding="UTF-8"?>
<svg xmlns="http://www.w3.org/2000/svg" version="1.1" width="200" height="200" viewBox="0 0 200 200"><rect x="0" y="0" width="200" height="200" fill="#ffffff"/><g transform="scale(9.524)"><g transform="translate(0,0)"><path fill-rule="evenodd" d="M9 0L9 1L8 1L8 2L9 2L9 3L8 3L8 4L9 4L9 5L8 5L8 7L9 7L9 8L6 8L6 9L10 9L10 7L11 7L11 6L10 6L10 7L9 7L9 5L10 5L10 4L11 4L11 5L12 5L12 9L11 9L11 10L12 10L12 11L10 11L10 10L8 10L8 11L7 11L7 10L6 10L6 11L5 11L5 12L6 12L6 13L7 13L7 12L8 12L8 11L9 11L9 13L8 13L8 15L9 15L9 14L10 14L10 12L11 12L11 13L12 13L12 12L13 12L13 13L16 13L16 14L17 14L17 13L18 13L18 12L19 12L19 14L18 14L18 16L20 16L20 12L19 12L19 11L20 11L20 10L21 10L21 9L20 9L20 8L19 8L19 9L18 9L18 8L17 8L17 9L16 9L16 8L15 8L15 9L14 9L14 8L13 8L13 5L12 5L12 4L13 4L13 1L12 1L12 0ZM9 1L9 2L10 2L10 3L9 3L9 4L10 4L10 3L11 3L11 4L12 4L12 1ZM0 8L0 9L2 9L2 10L3 10L3 12L2 12L2 11L1 11L1 12L2 12L2 13L4 13L4 10L5 10L5 8ZM3 9L3 10L4 10L4 9ZM12 9L12 10L14 10L14 9ZM17 9L17 10L15 10L15 11L14 11L14 12L15 12L15 11L17 11L17 10L18 10L18 9ZM19 9L19 10L20 10L20 9ZM6 11L6 12L7 12L7 11ZM16 12L16 13L17 13L17 12ZM12 14L12 17L11 17L11 19L10 19L10 18L9 18L9 16L8 16L8 21L10 21L10 20L11 20L11 21L12 21L12 19L13 19L13 20L14 20L14 21L15 21L15 20L14 20L14 19L13 19L13 18L12 18L12 17L13 17L13 16L14 16L14 18L17 18L17 19L16 19L16 20L17 20L17 21L20 21L20 20L19 20L19 18L20 18L20 17L19 17L19 18L18 18L18 17L17 17L17 15L16 15L16 17L15 17L15 16L14 16L14 15L15 15L15 14ZM10 15L10 16L11 16L11 15ZM9 19L9 20L10 20L10 19ZM0 0L0 7L7 7L7 0ZM1 1L1 6L6 6L6 1ZM2 2L2 5L5 5L5 2ZM14 0L14 7L21 7L21 0ZM15 1L15 6L20 6L20 1ZM16 2L16 5L19 5L19 2ZM0 14L0 21L7 21L7 14ZM1 15L1 20L6 20L6 15ZM2 16L2 19L5 19L5 16Z" fill="#000000"/></g></g></svg>
