<?xml version="1.0" encoding="UTF-8"?>
<svg xmlns="http://www.w3.org/2000/svg" version="1.1" width="200" height="200" viewBox="0 0 200 200"><rect x="0" y="0" width="200" height="200" fill="#ffffff"/><g transform="scale(9.524)"><g transform="translate(0,0)"><path fill-rule="evenodd" d="M8 0L8 4L9 4L9 3L11 3L11 4L10 4L10 5L8 5L8 7L9 7L9 8L12 8L12 9L11 9L11 11L12 11L12 9L13 9L13 12L14 12L14 11L15 11L15 12L16 12L16 11L17 11L17 9L18 9L18 10L19 10L19 11L20 11L20 9L21 9L21 8L17 8L17 9L16 9L16 8L15 8L15 9L16 9L16 11L15 11L15 10L14 10L14 9L13 9L13 8L12 8L12 7L13 7L13 5L12 5L12 2L13 2L13 1L12 1L12 0L10 0L10 1L9 1L9 0ZM10 1L10 2L12 2L12 1ZM10 5L10 6L9 6L9 7L10 7L10 6L11 6L11 7L12 7L12 5ZM0 8L0 9L1 9L1 10L2 10L2 12L1 12L1 11L0 11L0 12L1 12L1 13L2 13L2 12L3 12L3 13L5 13L5 12L6 12L6 13L7 13L7 12L9 12L9 13L8 13L8 14L10 14L10 17L9 17L9 15L8 15L8 17L9 17L9 18L10 18L10 19L11 19L11 18L12 18L12 17L13 17L13 18L14 18L14 15L15 15L15 14L16 14L16 15L17 15L17 16L15 16L15 17L16 17L16 19L17 19L17 18L18 18L18 17L17 17L17 16L18 16L18 14L17 14L17 13L18 13L18 12L17 12L17 13L13 13L13 16L12 16L12 14L11 14L11 13L12 13L12 12L11 12L11 13L10 13L10 11L9 11L9 9L7 9L7 8L4 8L4 9L2 9L2 8ZM4 9L4 10L3 10L3 12L4 12L4 10L5 10L5 11L6 11L6 12L7 12L7 11L6 11L6 10L7 10L7 9L6 9L6 10L5 10L5 9ZM20 12L20 14L19 14L19 17L20 17L20 18L21 18L21 16L20 16L20 14L21 14L21 12ZM11 16L11 17L12 17L12 16ZM8 19L8 21L9 21L9 19ZM12 19L12 20L10 20L10 21L12 21L12 20L13 20L13 21L14 21L14 19ZM15 20L15 21L16 21L16 20ZM17 20L17 21L19 21L19 20ZM20 20L20 21L21 21L21 20ZM0 0L0 7L7 7L7 0ZM1 1L1 6L6 6L6 1ZM2 2L2 5L5 5L5 2ZM14 0L14 7L21 7L21 0ZM15 1L15 6L20 6L20 1ZM16 2L16 5L19 5L19 2ZM0 14L0 21L7 21L7 14ZM1 15L1 20L6 20L6 15ZM2 16L2 19L5 19L5 16Z" fill="#000000"/></g></g></svg>
