<?xml version="1.0" encoding="UTF-8"?>
<svg xmlns="http://www.w3.org/2000/svg" version="1.1" width="200" height="200" viewBox="0 0 200 200"><rect x="0" y="0" width="200" height="200" fill="#ffffff"/><g transform="scale(9.524)"><g transform="translate(0,0)"><path fill-rule="evenodd" d="M8 0L8 2L9 2L9 4L8 4L8 9L11 9L11 12L10 12L10 15L8 15L8 16L10 16L10 18L12 18L12 19L11 19L11 20L9 20L9 18L8 18L8 21L11 21L11 20L13 20L13 21L14 21L14 19L15 19L15 20L16 20L16 21L17 21L17 20L18 20L18 21L19 21L19 20L18 20L18 19L21 19L21 18L20 18L20 17L21 17L21 16L20 16L20 15L21 15L21 14L20 14L20 13L21 13L21 12L20 12L20 13L18 13L18 14L17 14L17 12L18 12L18 11L19 11L19 10L18 10L18 11L17 11L17 8L9 8L9 6L10 6L10 7L11 7L11 6L10 6L10 5L11 5L11 3L13 3L13 2L9 2L9 0ZM10 0L10 1L11 1L11 0ZM9 4L9 5L10 5L10 4ZM12 6L12 7L13 7L13 6ZM0 8L0 9L1 9L1 11L2 11L2 13L8 13L8 14L9 14L9 11L10 11L10 10L9 10L9 11L8 11L8 10L5 10L5 9L7 9L7 8L5 8L5 9L4 9L4 10L3 10L3 8ZM19 8L19 9L20 9L20 11L21 11L21 8ZM13 9L13 11L12 11L12 12L11 12L11 14L12 14L12 13L13 13L13 15L11 15L11 16L13 16L13 15L14 15L14 17L13 17L13 18L14 18L14 17L15 17L15 19L16 19L16 17L17 17L17 16L18 16L18 17L19 17L19 15L20 15L20 14L19 14L19 15L17 15L17 16L15 16L15 15L16 15L16 14L15 14L15 12L16 12L16 9L15 9L15 10L14 10L14 9ZM4 11L4 12L8 12L8 11ZM13 11L13 12L14 12L14 11ZM0 12L0 13L1 13L1 12ZM17 18L17 19L18 19L18 18ZM20 20L20 21L21 21L21 20ZM0 0L0 7L7 7L7 0ZM1 1L1 6L6 6L6 1ZM2 2L2 5L5 5L5 2ZM14 0L14 7L21 7L21 0ZM15 1L15 6L20 6L20 1ZM16 2L16 5L19 5L19 2ZM0 14L0 21L7 21L7 14ZM1 15L1 20L6 20L6 15ZM2 16L2 19L5 19L5 16Z" fill="#000000"/></g></g></svg>
