<?xml version="1.0" encoding="UTF-8"?>
<svg xmlns="http://www.w3.org/2000/svg" version="1.1" width="200" height="200" viewBox="0 0 200 200"><rect x="0" y="0" width="200" height="200" fill="#ffffff"/><g transform="scale(9.524)"><g transform="translate(0,0)"><path fill-rule="evenodd" d="M8 0L8 1L9 1L9 2L8 2L8 5L9 5L9 6L8 6L8 7L9 7L9 6L10 6L10 7L11 7L11 8L10 8L10 9L11 9L11 10L6 10L6 9L7 9L7 8L6 8L6 9L4 9L4 8L0 8L0 11L1 11L1 13L2 13L2 11L3 11L3 13L5 13L5 12L6 12L6 13L7 13L7 12L6 12L6 11L8 11L8 14L9 14L9 15L10 15L10 13L9 13L9 11L11 11L11 14L13 14L13 13L14 13L14 15L12 15L12 16L10 16L10 17L11 17L11 18L9 18L9 17L8 17L8 21L18 21L18 20L17 20L17 19L19 19L19 16L20 16L20 17L21 17L21 16L20 16L20 15L18 15L18 16L17 16L17 14L21 14L21 13L20 13L20 11L21 11L21 8L20 8L20 10L19 10L19 8L16 8L16 9L14 9L14 8L13 8L13 9L14 9L14 10L13 10L13 11L14 11L14 10L15 10L15 11L16 11L16 10L17 10L17 9L18 9L18 10L19 10L19 13L18 13L18 11L17 11L17 13L16 13L16 12L13 12L13 13L12 13L12 9L11 9L11 8L12 8L12 7L13 7L13 6L12 6L12 7L11 7L11 5L10 5L10 4L11 4L11 2L12 2L12 0L11 0L11 2L10 2L10 1L9 1L9 0ZM9 2L9 4L10 4L10 2ZM12 3L12 5L13 5L13 3ZM8 8L8 9L9 9L9 8ZM1 9L1 11L2 11L2 9ZM3 9L3 10L4 10L4 9ZM5 10L5 11L4 11L4 12L5 12L5 11L6 11L6 10ZM14 15L14 16L12 16L12 17L15 17L15 18L13 18L13 19L17 19L17 17L15 17L15 16L16 16L16 15ZM9 19L9 20L10 20L10 19ZM11 19L11 20L12 20L12 19ZM20 19L20 20L21 20L21 19ZM0 0L0 7L7 7L7 0ZM1 1L1 6L6 6L6 1ZM2 2L2 5L5 5L5 2ZM14 0L14 7L21 7L21 0ZM15 1L15 6L20 6L20 1ZM16 2L16 5L19 5L19 2ZM0 14L0 21L7 21L7 14ZM1 15L1 20L6 20L6 15ZM2 16L2 19L5 19L5 16Z" fill="#000000"/></g></g></svg>
