<?xml version="1.0" encoding="UTF-8"?>
<svg xmlns="http://www.w3.org/2000/svg" version="1.1" width="200" height="200" viewBox="0 0 200 200"><rect x="0" y="0" width="200" height="200" fill="#ffffff"/><g transform="scale(9.524)"><g transform="translate(0,0)"><path fill-rule="evenodd" d="M10 0L10 1L9 1L9 3L8 3L8 5L9 5L9 6L8 6L8 7L9 7L9 6L10 6L10 7L11 7L11 5L12 5L12 9L11 9L11 10L10 10L10 11L9 11L9 10L8 10L8 8L5 8L5 9L7 9L7 10L4 10L4 11L3 11L3 9L2 9L2 8L0 8L0 10L2 10L2 11L0 11L0 12L1 12L1 13L2 13L2 11L3 11L3 12L4 12L4 13L5 13L5 12L4 12L4 11L7 11L7 10L8 10L8 12L10 12L10 14L11 14L11 12L14 12L14 11L15 11L15 10L12 10L12 9L13 9L13 5L12 5L12 4L13 4L13 1L12 1L12 2L11 2L11 3L12 3L12 4L11 4L11 5L10 5L10 1L11 1L11 0ZM9 8L9 9L10 9L10 8ZM16 8L16 9L18 9L18 10L17 10L17 11L16 11L16 12L15 12L15 14L12 14L12 17L11 17L11 18L12 18L12 19L10 19L10 16L11 16L11 15L10 15L10 16L9 16L9 13L8 13L8 16L9 16L9 19L8 19L8 21L12 21L12 19L13 19L13 20L14 20L14 21L15 21L15 20L17 20L17 21L20 21L20 20L19 20L19 19L21 19L21 18L20 18L20 17L19 17L19 18L18 18L18 17L17 17L17 16L16 16L16 15L15 15L15 14L17 14L17 12L19 12L19 11L20 11L20 10L19 10L19 9L18 9L18 8ZM11 10L11 11L10 11L10 12L11 12L11 11L12 11L12 10ZM6 12L6 13L7 13L7 12ZM20 12L20 13L19 13L19 14L18 14L18 16L21 16L21 15L20 15L20 13L21 13L21 12ZM13 16L13 17L12 17L12 18L14 18L14 16ZM15 16L15 19L14 19L14 20L15 20L15 19L16 19L16 16ZM17 18L17 19L18 19L18 18ZM0 0L0 7L7 7L7 0ZM1 1L1 6L6 6L6 1ZM2 2L2 5L5 5L5 2ZM14 0L14 7L21 7L21 0ZM15 1L15 6L20 6L20 1ZM16 2L16 5L19 5L19 2ZM0 14L0 21L7 21L7 14ZM1 15L1 20L6 20L6 15ZM2 16L2 19L5 19L5 16Z" fill="#000000"/></g></g></svg>
