<?xml version="1.0" encoding="UTF-8"?>
<svg xmlns="http://www.w3.org/2000/svg" version="1.1" width="200" height="200" viewBox="0 0 200 200"><rect x="0" y="0" width="200" height="200" fill="#ffffff"/><g transform="scale(9.524)"><g transform="translate(0,0)"><path fill-rule="evenodd" d="M9 0L9 2L8 2L8 3L9 3L9 2L10 2L10 5L9 5L9 6L8 6L8 8L4 8L4 9L3 9L3 8L0 8L0 9L2 9L2 10L4 10L4 11L2 11L2 12L3 12L3 13L8 13L8 17L9 17L9 18L8 18L8 21L9 21L9 18L11 18L11 19L10 19L10 21L12 21L12 20L13 20L13 18L14 18L14 19L16 19L16 20L15 20L15 21L21 21L21 20L20 20L20 19L21 19L21 18L20 18L20 19L19 19L19 17L18 17L18 18L17 18L17 17L16 17L16 16L18 16L18 15L21 15L21 14L19 14L19 13L21 13L21 12L20 12L20 11L21 11L21 9L19 9L19 8L18 8L18 9L15 9L15 8L12 8L12 7L13 7L13 6L12 6L12 3L13 3L13 2L12 2L12 0ZM10 1L10 2L11 2L11 3L12 3L12 2L11 2L11 1ZM10 5L10 6L9 6L9 7L10 7L10 8L9 8L9 9L8 9L8 10L7 10L7 9L6 9L6 10L5 10L5 9L4 9L4 10L5 10L5 11L4 11L4 12L7 12L7 11L8 11L8 13L10 13L10 12L12 12L12 13L13 13L13 12L14 12L14 15L12 15L12 14L11 14L11 15L10 15L10 14L9 14L9 16L11 16L11 18L12 18L12 16L13 16L13 17L15 17L15 16L16 16L16 15L15 15L15 14L16 14L16 12L15 12L15 10L14 10L14 11L12 11L12 8L11 8L11 7L12 7L12 6L11 6L11 5ZM10 6L10 7L11 7L11 6ZM10 8L10 9L9 9L9 11L10 11L10 9L11 9L11 8ZM18 9L18 10L19 10L19 9ZM6 10L6 11L7 11L7 10ZM0 11L0 12L1 12L1 11ZM17 11L17 12L18 12L18 13L19 13L19 11ZM17 14L17 15L18 15L18 14ZM11 15L11 16L12 16L12 15ZM20 16L20 17L21 17L21 16ZM11 19L11 20L12 20L12 19ZM17 19L17 20L19 20L19 19ZM0 0L0 7L7 7L7 0ZM1 1L1 6L6 6L6 1ZM2 2L2 5L5 5L5 2ZM14 0L14 7L21 7L21 0ZM15 1L15 6L20 6L20 1ZM16 2L16 5L19 5L19 2ZM0 14L0 21L7 21L7 14ZM1 15L1 20L6 20L6 15ZM2 16L2 19L5 19L5 16Z" fill="#000000"/></g></g></svg>
