<?xml version="1.0" encoding="UTF-8"?>
<svg xmlns="http://www.w3.org/2000/svg" version="1.1" width="200" height="200" viewBox="0 0 200 200"><rect x="0" y="0" width="200" height="200" fill="#ffffff"/><g transform="scale(9.524)"><g transform="translate(0,0)"><path fill-rule="evenodd" d="M9 0L9 1L8 1L8 3L9 3L9 2L10 2L10 4L11 4L11 5L9 5L9 4L8 4L8 8L6 8L6 9L5 9L5 10L4 10L4 8L3 8L3 9L2 9L2 8L0 8L0 9L2 9L2 10L0 10L0 13L1 13L1 12L2 12L2 13L5 13L5 12L4 12L4 11L5 11L5 10L6 10L6 11L7 11L7 10L8 10L8 12L6 12L6 13L8 13L8 15L10 15L10 12L11 12L11 16L12 16L12 17L11 17L11 19L10 19L10 16L9 16L9 17L8 17L8 18L9 18L9 19L8 19L8 21L9 21L9 19L10 19L10 21L11 21L11 19L12 19L12 20L14 20L14 21L17 21L17 20L14 20L14 19L19 19L19 17L20 17L20 19L21 19L21 16L19 16L19 17L17 17L17 16L18 16L18 15L20 15L20 13L21 13L21 9L20 9L20 8L18 8L18 9L17 9L17 8L14 8L14 9L13 9L13 8L12 8L12 7L13 7L13 6L12 6L12 7L11 7L11 5L12 5L12 3L13 3L13 2L12 2L12 0ZM10 1L10 2L11 2L11 1ZM9 6L9 7L10 7L10 6ZM8 8L8 10L10 10L10 11L9 11L9 12L8 12L8 13L9 13L9 12L10 12L10 11L12 11L12 13L13 13L13 14L17 14L17 13L16 13L16 12L14 12L14 11L15 11L15 10L13 10L13 11L12 11L12 9L11 9L11 10L10 10L10 8ZM6 9L6 10L7 10L7 9ZM18 9L18 10L19 10L19 11L18 11L18 13L19 13L19 11L20 11L20 10L19 10L19 9ZM16 10L16 11L17 11L17 10ZM13 12L13 13L14 13L14 12ZM12 15L12 16L14 16L14 18L13 18L13 19L14 19L14 18L15 18L15 16L16 16L16 15ZM18 20L18 21L20 21L20 20ZM0 0L0 7L7 7L7 0ZM1 1L1 6L6 6L6 1ZM2 2L2 5L5 5L5 2ZM14 0L14 7L21 7L21 0ZM15 1L15 6L20 6L20 1ZM16 2L16 5L19 5L19 2ZM0 14L0 21L7 21L7 14ZM1 15L1 20L6 20L6 15ZM2 16L2 19L5 19L5 16Z" fill="#000000"/></g></g></svg>
