<?xml version="1.0" encoding="UTF-8"?>
<svg xmlns="http://www.w3.org/2000/svg" version="1.1" width="200" height="200" viewBox="0 0 200 200"><rect x="0" y="0" width="200" height="200" fill="#ffffff"/><g transform="scale(9.524)"><g transform="translate(0,0)"><path fill-rule="evenodd" d="M8 0L8 2L9 2L9 4L8 4L8 10L6 10L6 9L7 9L7 8L5 8L5 10L4 10L4 9L3 9L3 8L0 8L0 9L3 9L3 10L0 10L0 12L1 12L1 11L5 11L5 12L4 12L4 13L7 13L7 12L8 12L8 14L9 14L9 12L10 12L10 14L11 14L11 15L13 15L13 16L9 16L9 15L8 15L8 16L9 16L9 18L8 18L8 21L9 21L9 20L10 20L10 21L11 21L11 20L13 20L13 21L14 21L14 19L15 19L15 20L16 20L16 21L17 21L17 20L18 20L18 21L19 21L19 20L18 20L18 19L21 19L21 18L20 18L20 17L21 17L21 16L20 16L20 15L21 15L21 14L20 14L20 13L21 13L21 12L20 12L20 13L18 13L18 14L17 14L17 12L18 12L18 11L19 11L19 10L18 10L18 11L17 11L17 8L9 8L9 6L10 6L10 7L11 7L11 0L10 0L10 2L9 2L9 0ZM12 2L12 3L13 3L13 2ZM12 6L12 7L13 7L13 6ZM19 8L19 9L20 9L20 11L21 11L21 8ZM10 9L10 10L9 10L9 11L8 11L8 12L9 12L9 11L10 11L10 10L11 10L11 9ZM13 9L13 11L12 11L12 12L11 12L11 14L12 14L12 13L13 13L13 15L14 15L14 17L13 17L13 18L14 18L14 17L15 17L15 19L16 19L16 17L17 17L17 16L18 16L18 17L19 17L19 15L20 15L20 14L19 14L19 15L17 15L17 16L15 16L15 15L16 15L16 14L15 14L15 12L16 12L16 9L15 9L15 10L14 10L14 9ZM5 10L5 11L6 11L6 12L7 12L7 11L6 11L6 10ZM13 11L13 12L14 12L14 11ZM10 17L10 18L11 18L11 19L10 19L10 20L11 20L11 19L12 19L12 18L11 18L11 17ZM17 18L17 19L18 19L18 18ZM20 20L20 21L21 21L21 20ZM0 0L0 7L7 7L7 0ZM1 1L1 6L6 6L6 1ZM2 2L2 5L5 5L5 2ZM14 0L14 7L21 7L21 0ZM15 1L15 6L20 6L20 1ZM16 2L16 5L19 5L19 2ZM0 14L0 21L7 21L7 14ZM1 15L1 20L6 20L6 15ZM2 16L2 19L5 19L5 16Z" fill="#000000"/></g></g></svg>
