<?xml version="1.0" encoding="UTF-8"?>
<svg xmlns="http://www.w3.org/2000/svg" version="1.1" width="200" height="200" viewBox="0 0 200 200"><rect x="0" y="0" width="200" height="200" fill="#ffffff"/><g transform="scale(9.524)"><g transform="translate(0,0)"><path fill-rule="evenodd" d="M11 0L11 1L12 1L12 2L11 2L11 3L10 3L10 2L9 2L9 1L8 1L8 2L9 2L9 3L8 3L8 4L9 4L9 5L8 5L8 7L9 7L9 8L6 8L6 9L5 9L5 8L0 8L0 10L2 10L2 9L3 9L3 11L1 11L1 12L0 12L0 13L1 13L1 12L3 12L3 11L4 11L4 13L8 13L8 15L9 15L9 16L8 16L8 21L9 21L9 20L10 20L10 19L9 19L9 18L11 18L11 21L12 21L12 19L13 19L13 20L14 20L14 21L15 21L15 20L14 20L14 19L13 19L13 18L12 18L12 17L13 17L13 16L14 16L14 18L17 18L17 19L16 19L16 20L17 20L17 21L20 21L20 20L19 20L19 18L20 18L20 17L19 17L19 18L18 18L18 17L17 17L17 15L16 15L16 17L15 17L15 16L14 16L14 15L15 15L15 14L12 14L12 17L10 17L10 16L11 16L11 15L9 15L9 14L11 14L11 13L12 13L12 12L13 12L13 13L16 13L16 14L17 14L17 13L18 13L18 12L19 12L19 14L18 14L18 16L20 16L20 12L19 12L19 11L20 11L20 10L21 10L21 9L20 9L20 8L19 8L19 9L18 9L18 8L17 8L17 9L16 9L16 8L15 8L15 9L14 9L14 8L13 8L13 5L12 5L12 4L13 4L13 1L12 1L12 0ZM9 3L9 4L10 4L10 6L9 6L9 7L10 7L10 9L6 9L6 10L7 10L7 11L6 11L6 12L8 12L8 13L11 13L11 12L10 12L10 11L12 11L12 10L14 10L14 9L12 9L12 5L11 5L11 4L12 4L12 3L11 3L11 4L10 4L10 3ZM10 6L10 7L11 7L11 6ZM4 9L4 10L5 10L5 9ZM11 9L11 10L12 10L12 9ZM17 9L17 10L15 10L15 11L14 11L14 12L15 12L15 11L17 11L17 10L18 10L18 9ZM19 9L19 10L20 10L20 9ZM9 10L9 11L10 11L10 10ZM16 12L16 13L17 13L17 12ZM0 0L0 7L7 7L7 0ZM1 1L1 6L6 6L6 1ZM2 2L2 5L5 5L5 2ZM14 0L14 7L21 7L21 0ZM15 1L15 6L20 6L20 1ZM16 2L16 5L19 5L19 2ZM0 14L0 21L7 21L7 14ZM1 15L1 20L6 20L6 15ZM2 16L2 19L5 19L5 16Z" fill="#000000"/></g></g></svg>
