<?xml version="1.0" encoding="UTF-8"?>
<svg xmlns="http://www.w3.org/2000/svg" version="1.1" width="200" height="200" viewBox="0 0 200 200"><rect x="0" y="0" width="200" height="200" fill="#ffffff"/><g transform="scale(9.524)"><g transform="translate(0,0)"><path fill-rule="evenodd" d="M9 0L9 1L10 1L10 4L9 4L9 5L10 5L10 7L9 7L9 6L8 6L8 8L4 8L4 9L3 9L3 8L0 8L0 9L3 9L3 10L2 10L2 11L3 11L3 12L0 12L0 13L3 13L3 12L5 12L5 13L7 13L7 12L5 12L5 11L8 11L8 12L9 12L9 13L8 13L8 17L9 17L9 18L8 18L8 21L12 21L12 20L13 20L13 18L14 18L14 19L16 19L16 20L15 20L15 21L21 21L21 20L20 20L20 19L21 19L21 18L20 18L20 19L19 19L19 17L18 17L18 18L17 18L17 17L16 17L16 16L18 16L18 15L21 15L21 14L19 14L19 13L21 13L21 12L20 12L20 11L21 11L21 9L19 9L19 8L18 8L18 9L15 9L15 8L12 8L12 7L13 7L13 6L12 6L12 3L13 3L13 2L12 2L12 0ZM8 2L8 3L9 3L9 2ZM11 6L11 7L10 7L10 8L9 8L9 9L8 9L8 11L9 11L9 9L10 9L10 8L11 8L11 10L10 10L10 13L11 13L11 12L12 12L12 13L13 13L13 12L14 12L14 15L12 15L12 14L10 14L10 16L9 16L9 17L10 17L10 18L12 18L12 16L13 16L13 17L15 17L15 16L16 16L16 15L15 15L15 14L16 14L16 12L15 12L15 10L14 10L14 11L12 11L12 8L11 8L11 7L12 7L12 6ZM5 9L5 10L7 10L7 9ZM18 9L18 10L19 10L19 9ZM0 10L0 11L1 11L1 10ZM17 11L17 12L18 12L18 13L19 13L19 11ZM17 14L17 15L18 15L18 14ZM11 15L11 16L10 16L10 17L11 17L11 16L12 16L12 15ZM20 16L20 17L21 17L21 16ZM9 19L9 20L12 20L12 19ZM17 19L17 20L19 20L19 19ZM0 0L0 7L7 7L7 0ZM1 1L1 6L6 6L6 1ZM2 2L2 5L5 5L5 2ZM14 0L14 7L21 7L21 0ZM15 1L15 6L20 6L20 1ZM16 2L16 5L19 5L19 2ZM0 14L0 21L7 21L7 14ZM1 15L1 20L6 20L6 15ZM2 16L2 19L5 19L5 16Z" fill="#000000"/></g></g></svg>
